<?xml version="1.0" encoding="utf-8"?>
<!-- Made by: Slum#3624 -->
<svg version="1.1" id="Calque_1" xmlns="http://www.w3.org/2000/svg" xmlns:xlink="http://www.w3.org/1999/xlink" x="0px"
     y="0px"
     viewBox="0 0 1366 601.66" enable-background="new 0 0 1366 601.66" xml:space="preserve">
<g>
	<path fill="#F2BE49" d="M922.58,392.36l-0.64-12.32c-0.03-0.03-0.03-0.08-0.03-0.11l-6.9-1.45c-0.56,18.1,1.06,33.58,4.89,46.43
		c0.59,1.96,1.23,3.86,1.9,5.7c1.23-7.85,1.31-14.86,1.31-14.86S923.59,396.69,922.58,392.36z"/>
</g>
    <g>
	<path fill="#F2BE49" d="M462.89,396.92l-0.03-0.31c-0.17,1.59-0.08,3.13,0.22,4.67c0.06,0.36,0.14,0.73,0.25,1.09
		C463.2,400.55,463.03,398.73,462.89,396.92z"/>
</g>
    <g>
	<path fill="#F2BE49" d="M922.58,392.36l-0.64-12.32c-0.03-0.03-0.03-0.08-0.03-0.11l-6.9-1.45c-0.56,18.1,1.06,33.58,4.89,46.43
		c0.59,1.96,1.23,3.86,1.9,5.7c1.23-7.85,1.31-14.86,1.31-14.86S923.59,396.69,922.58,392.36z"/>
</g>
    <g>
	<path fill="#F2BE49" d="M462.89,396.92l-0.03-0.31c-0.17,1.59-0.08,3.13,0.22,4.67L462.89,396.92z"/>
</g>
    <g>
	<path fill="#632717" stroke="#632717" stroke-width="67" stroke-miterlimit="10" d="M1100.31,209.46
		c-0.64-11.06-3.02-21.79-7.12-32.18c-4.13-10.39-10.95-19.22-20.42-26.51c-9.5-7.29-22.66-11.96-39.47-14
		c-27.18-3.3-67.07,2.77-84.67,15.81c-17.6,13.05-26.6,20.84-28.94,40.12c-2.43,20.03,16.9,30.34,39.39,51.4
		c8.3,7.79,10.53,10.5,13.74,14.97c1.31,1.84-1.42,2.51-2.54,1.9L927.8,243.8c-2.21-1.17-5.81,2.71-4.47,4.83l67.07,85.09
		c0.03,0.06,0.06,0.11,0.08,0.14c9.41,10.9,16.65,21.43,21.71,31.62c5.06,10.22,6.76,22.21,5.08,35.93
		c-0.7,5.78-2.46,11.12-5.28,16.06c-2.85,4.97-7.85,5.7-15.14,6.12c-9.83,0.59-45.62-2.68-49.17-7.01
		c-3.55-4.3-24.47-27.43-25.76-36.54l-5.81-110.43c-0.11-2.57-3.66-3.38-4.64-1.03c-4.89,11.62-10.14,33.58-13.27,29.75
		c-2.93-3.6-9-27.1-2.21-55.93c1.37-5.87-2.91-11.82-9.02-12.35l-8.38-0.75c-9.11,0-16.23,4.94-15.92,11.03l14.55,139.35
		c0.84,8.02,3.46,15.73,7.68,22.57l4.92,7.99c1.26,2.01,2.85,3.8,4.69,5.34c2.26,1.9,7.32,7.57,1.87,18.72
		c-6.45,13.27-49.89,12.82-61.79,12.82c-11.29,0-19.86-2.1-25.73-6.29c-5.87-4.19-9.75-9.69-11.62-16.54
		c-1.9-6.84-3.04-14.16-3.44-21.9l-8.49-162.06c-0.31-6.09-7.96-11.03-17.1-11.03h-32.88c-6.17,0,1.17,21.93,6.03,40.62
		c1.29,5,1.84,10.14,1.56,15.23l-0.81,15.36c-0.25,4.86,0.11,9.78,1.06,14.61l8.1,41.37c1.9,9.69,2.4,19.56,1.51,29.25
		c-1.59,17.57-3.8,45.28-3.41,48.75c0.45,4.08-22.35-8.91-40.95-19.19c0.73-5.08,1.09-10.53,1.09-16.26v-88.47
		c0-8.58,1.01-20.28,1.98-29.86c1.01-9.58,2.01-17.01,2.01-17.01c2.93-18.83-12.21-35.62-31.26-34.61
		c-22.27,1.2-50.09,2.6-70.06,3.27c-11.48,0.36-22.94-0.48-34.25-2.54l-71.88-13.16c-9.11,0,8.8,23.69,8.8,29.95l16.85,64.95
		l3.32,60.26l-7.77,67.07c0,2.63-14.44,9.19-29.58-4.53c-5.53-5-30.42-16.34-34.36-31.99c-0.11-0.36-0.2-0.73-0.25-1.09
		c-0.31-1.54-0.39-3.07-0.22-4.67v-0.11c-0.34-3.8-0.64-7.46-0.95-10.76c-0.87-9.69-0.36-19.56,1.54-29.25l8.1-41.37
		c0.95-4.83,1.31-9.75,1.03-14.61l-0.78-15.36c-0.28-5.08,0.25-10.22,1.56-15.23c4.83-18.69,12.21-40.62,6.03-40.62h-32.88
		c-9.14,0-16.79,4.94-17.1,11.03l-8.49,162.06c-0.42,7.74-1.56,15.06-3.44,21.9c-1.9,6.84-5.75,12.35-11.62,16.54
		c-5.87,4.19-14.44,6.29-25.73,6.29c-11.9,0-60.93-6.17-61.82-12.82c-1.76-13.07,7.38-22.68,7.38-22.68s14.19-28.1,14.58-35.87
		l11.79-135.41c0.31-6.09-6.82-11.03-15.95-11.03l-8.38,0.75c-6.09,0.53-10.39,6.48-9,12.35c6.79,28.83,0.73,52.32-2.21,55.93
		c-3.13,3.83-8.38-18.13-13.3-29.75c-0.98-2.35-4.5-1.54-4.64,1.03l-6.43,122.75c-1.01,4.33-0.56,23.38-0.56,23.38
		s0.06,5.7,1.01,12.6l-38.05,9.36c-0.11,0.03-0.2,0.03-0.31,0.03l-40.81-4.47c-0.47-0.03-0.81-0.42-0.84-0.87l-25.48-231.73
		l14.67-47.66l1.09-1.01l1.31-3.52c0.47-1.23-0.08-2.6-1.26-3.21c-1.37-0.67-2.99-1.31-3.32-1.2l-77.83,15.31
		c-0.34,0.08-3.66,5.25-3.72,5.59l16.57,77.8c0.48,2.23-1.68,4.13-3.83,3.35c-4.5-1.59-11.26-3.99-16.29-5.78
		c-2.77-0.98-5.48,1.62-4.64,4.47l29.64,110.91c-0.08,0-7.82-2.37-13.27-4.08c-2.32-0.73-4.55,1.37-3.97,3.72l15.87,65.59
		l2.77,36.74c0.98,12.88,11.71,22.82,24.61,22.82h103.06c11.17,0,22.29-1.31,33.16-3.91l25.73-6.17
		c13.13,5.89,25.7,10.39,50.87,10.39c27.46,0,49-3.38,64.62-10.11c8.24-3.55,17.46-5.64,22.94-10.06h0.03l25.06,10.78
		c2.54,0.59,11.17,3.24,19.28,5.48c3.21,0.89,6.54,1.34,9.83,1.34c6.03,0,12.01-1.45,17.01-4.27c4.64-1.23,9.67-0.98,14.16,0.53
		c40.62,13.44,99.2-0.28,114.15-5.67c9.72-3.49,17.74-8.1,24.05-13.86c4.44-2.82,20.95-13.6,41.09-4.19
		c8.55,3.99,30,15.09,41.21,19.92c15.59,6.73,37.13,10.11,64.59,10.11c27.77,0,40.2-5.48,54.95-12.24
		c14.75-6.73,22.07-12.88,27.21-25.34c1.56-3.77,2.6-8.3,3.27-12.63c5.03,13.6,12.99,24.39,23.8,32.29
		c12.32,9.02,28.3,14.72,47.97,17.12c16.82,2.04,31.82,0.08,45.03-5.81c13.19-5.92,23.91-14.86,32.21-26.82
		c8.27-11.93,13.35-25.73,15.25-41.37c2.82-23.08,0.45-42.99-7.1-59.78c-7.57-16.79-17.43-32.21-29.67-46.23l-23.05-27.46
		c-8.05-9.58-14.36-18.66-18.97-27.15c-4.61-8.49-6.17-18.91-4.67-31.29c0.67-5.48,2.68-10.81,6.03-15.95
		c3.52-5.39,9.78-8.55,16.15-7.65c5.75,0.78,9.78,3.3,12.1,7.51c2.35,4.33,3.55,10.2,3.58,17.57c0,2.85-0.06,5.89-0.2,9.11
		c-0.39,9.16,6.45,16.76,15.11,16.68l1.56-31.01c2.26,0,8.27,17.82,14.64,27.01c3.35,4.86,10.03,6.03,14.86,2.65
		c5.11-3.58,13.58-8.63,14.19-15.23C1101.12,219.86,1100.59,214.72,1100.31,209.46z M660.93,394.79c0,9.97-0.67,18.38-2.04,25.28
		c-0.78,3.91-2.32,7.29-4.61,10.14c-1.73,2.15-3.91,3.99-6.51,5.53c-6.03,3.6-29.14,10.81-43.13,10.81h-2.88
		c-8.63,0-30.95-4.81-30.95-11.06l3.3-87.75l-3.04-38.92c-0.08-1.26-1.03-2.29-2.29-2.46l-18.52-1.48l-1.73-3.44l25.53-8.6
		c1.31-0.39,2.12-1.7,1.96-3.04c-1.34-10.11-8.74-23.19-0.78-23.19h28.61c13.44,0,24.25,1.03,30.84,2.77
		c7.85,2.1,14.55,5.89,16.48,11.84c1.93,5.98,9.78,11.15,9.78,20.92V394.79z"/>
</g>
    <g>
	<path fill="#632717" stroke="#632717" stroke-width="33.8297" stroke-miterlimit="10" d="M1124.94,223.88l11.19,97.05
		c0.05,0.45,0.08,0.91,0.09,1.37l2.7,147.9c0.07,3.65,1.54,7.13,4.11,9.71l7.47,7.48c2.43,2.43,5.65,3.88,9.07,4.06l0,0
		c7.69,0.42,14.27-5.53,14.7-13.28l7.15-130.84c0.04-0.7,0.02-1.4-0.04-2.09l-7.8-83.6c-0.14-1.49-0.04-2.99,0.29-4.45l12.77-56.41
		c1.92-8.5-4.2-16.69-12.83-17.16l-32.8-1.79c-7.69-0.42-14.27,5.53-14.7,13.28l-1.44,26.37
		C1124.82,222.28,1124.85,223.08,1124.94,223.88z"/>
        <path fill="#632717" stroke="#632717" stroke-width="33.8297" stroke-miterlimit="10" d="M1202.44,228.66l11.19,97.05
		c0.05,0.45,0.08,0.91,0.09,1.37l2.7,147.9c0.07,3.65,1.54,7.13,4.11,9.71l7.47,7.48c2.43,2.43,5.65,3.88,9.07,4.06l0,0
		c7.69,0.42,14.27-5.53,14.7-13.28l7.15-130.84c0.04-0.7,0.02-1.4-0.04-2.09l-7.8-83.6c-0.14-1.49-0.04-2.99,0.29-4.45l12.77-56.41
		c1.92-8.5-4.2-16.69-12.83-17.16l-32.8-1.79c-7.69-0.42-14.27,5.53-14.7,13.28l-1.44,26.37
		C1202.32,227.06,1202.35,227.86,1202.44,228.66z"/>
</g>
    <g>
	<g>
		<g>
			<linearGradient id="SVGID_1_" gradientUnits="userSpaceOnUse" x1="605.2847" y1="272.6915" x2="605.2847"
                            y2="557.5317">
				<stop offset="0" style="stop-color:#FBB03B"/>
                <stop offset="1" style="stop-color:#F15A24"/>
			</linearGradient>
            <path fill="url(#SVGID_1_)" d="M1100.31,209.46c-0.64-11.06-3.02-21.79-7.12-32.18c-4.13-10.39-10.95-19.22-20.42-26.51
				c-9.5-7.29-22.66-11.96-39.47-14c-27.18-3.3-67.07,2.77-84.67,15.81c-17.6,13.05-26.6,20.84-28.94,40.12
				c-2.43,20.03,16.9,30.34,39.39,51.4c8.3,7.79,10.53,10.5,13.74,14.97c1.31,1.84-1.42,2.51-2.54,1.9L927.8,243.8
				c-2.21-1.17-5.81,2.71-4.47,4.83l67.07,85.09c0.03,0.06,0.06,0.11,0.08,0.14c9.41,10.9,16.65,21.43,21.71,31.62
				c5.06,10.22,6.76,22.21,5.08,35.93c-0.7,5.78-2.46,11.12-5.28,16.06c-2.85,4.97-7.85,5.7-15.14,6.12
				c-9.83,0.59-45.62-2.68-49.17-7.01c-3.55-4.3-24.47-27.43-25.76-36.54l-5.81-110.43c-0.11-2.57-3.66-3.38-4.64-1.03
				c-4.89,11.62-10.14,33.58-13.27,29.75c-2.93-3.6-9-27.1-2.21-55.93c1.37-5.87-2.91-11.82-9.02-12.35l-8.38-0.75
				c-9.11,0-16.23,4.94-15.92,11.03l14.55,139.35c0.84,8.02,3.46,15.73,7.68,22.57l4.92,7.99c1.26,2.01,2.85,3.8,4.69,5.34
				c2.26,1.9,7.32,7.57,1.87,18.72c-6.45,13.27-49.89,12.82-61.79,12.82c-11.29,0-19.86-2.1-25.73-6.29
				c-5.87-4.19-9.75-9.69-11.62-16.54c-1.9-6.84-3.04-14.16-3.44-21.9l-8.49-162.06c-0.31-6.09-7.96-11.03-17.1-11.03h-32.88
				c-6.17,0,1.17,21.93,6.03,40.62c1.29,5,1.84,10.14,1.56,15.23l-0.81,15.36c-0.25,4.86,0.11,9.78,1.06,14.61l8.1,41.37
				c1.9,9.69,2.4,19.56,1.51,29.25c-1.59,17.57-3.8,45.28-3.41,48.75c0.45,4.08-22.35-8.91-40.95-19.19
				c0.73-5.08,1.09-10.53,1.09-16.26v-88.47c0-8.58,1.01-20.28,1.98-29.86c1.01-9.58,2.01-17.01,2.01-17.01
				c2.93-18.83-12.21-35.62-31.26-34.61c-22.27,1.2-50.09,2.6-70.06,3.27c-11.48,0.36-22.94-0.48-34.25-2.54l-71.88-13.16
				c-9.11,0,8.8,23.69,8.8,29.95l16.85,64.95l3.32,60.26l-7.77,67.07c0,2.63-14.44,9.19-29.58-4.53c-5.53-5-30.42-16.34-34.36-31.99
				c-0.11-0.36-0.2-0.73-0.25-1.09c-0.31-1.54-0.39-3.07-0.22-4.67v-0.11c-0.34-3.8-0.64-7.46-0.95-10.76
				c-0.87-9.69-0.36-19.56,1.54-29.25l8.1-41.37c0.95-4.83,1.31-9.75,1.03-14.61l-0.78-15.36c-0.28-5.08,0.25-10.22,1.56-15.23
				c4.83-18.69,12.21-40.62,6.03-40.62h-32.88c-9.14,0-16.79,4.94-17.1,11.03l-8.49,162.06c-0.42,7.74-1.56,15.06-3.44,21.9
				c-1.9,6.84-5.75,12.35-11.62,16.54c-5.87,4.19-14.44,6.29-25.73,6.29c-11.9,0-60.93-6.17-61.82-12.82
				c-1.76-13.07,7.38-22.68,7.38-22.68s14.19-28.1,14.58-35.87l11.79-135.41c0.31-6.09-6.82-11.03-15.95-11.03l-8.38,0.75
				c-6.09,0.53-10.39,6.48-9,12.35c6.79,28.83,0.73,52.32-2.21,55.93c-3.13,3.83-8.38-18.13-13.3-29.75
				c-0.98-2.35-4.5-1.54-4.64,1.03l-6.43,122.75c-1.01,4.33-0.56,23.38-0.56,23.38s0.06,5.7,1.01,12.6l-38.05,9.36
				c-0.11,0.03-0.2,0.03-0.31,0.03l-40.81-4.47c-0.47-0.03-0.81-0.42-0.84-0.87l-25.48-231.73l14.67-47.66l1.09-1.01l1.31-3.52
				c0.47-1.23-0.08-2.6-1.26-3.21c-1.37-0.67-2.99-1.31-3.32-1.2l-77.83,15.31c-0.34,0.08-3.66,5.25-3.72,5.59l16.57,77.8
				c0.48,2.23-1.68,4.13-3.83,3.35c-4.5-1.59-11.26-3.99-16.29-5.78c-2.77-0.98-5.48,1.62-4.64,4.47l29.64,110.91
				c-0.08,0-7.82-2.37-13.27-4.08c-2.32-0.73-4.55,1.37-3.97,3.72l15.87,65.59l2.77,36.74c0.98,12.88,11.71,22.82,24.61,22.82
				h103.06c11.17,0,22.29-1.31,33.16-3.91l25.73-6.17c13.13,5.89,25.7,10.39,50.87,10.39c27.46,0,49-3.38,64.62-10.11
				c8.24-3.55,17.46-5.64,22.94-10.06h0.03l25.06,10.78c2.54,0.59,11.17,3.24,19.28,5.48c3.21,0.89,6.54,1.34,9.83,1.34
				c6.03,0,12.01-1.45,17.01-4.27c4.64-1.23,9.67-0.98,14.16,0.53c40.62,13.44,99.2-0.28,114.15-5.67
				c9.72-3.49,17.74-8.1,24.05-13.86c4.44-2.82,20.95-13.6,41.09-4.19c8.55,3.99,30,15.09,41.21,19.92
				c15.59,6.73,37.13,10.11,64.59,10.11c27.77,0,40.2-5.48,54.95-12.24c14.75-6.73,22.07-12.88,27.21-25.34
				c1.56-3.77,2.6-8.3,3.27-12.63c5.03,13.6,12.99,24.39,23.8,32.29c12.32,9.02,28.3,14.72,47.97,17.12
				c16.82,2.04,31.82,0.08,45.03-5.81c13.19-5.92,23.91-14.86,32.21-26.82c8.27-11.93,13.35-25.73,15.25-41.37
				c2.82-23.08,0.45-42.99-7.1-59.78c-7.57-16.79-17.43-32.21-29.67-46.23l-23.05-27.46c-8.05-9.58-14.36-18.66-18.97-27.15
				c-4.61-8.49-6.17-18.91-4.67-31.29c0.67-5.48,2.68-10.81,6.03-15.95c3.52-5.39,9.78-8.55,16.15-7.65
				c5.75,0.78,9.78,3.3,12.1,7.51c2.35,4.33,3.55,10.2,3.58,17.57c0,2.85-0.06,5.89-0.2,9.11c-0.39,9.16,6.45,16.76,15.11,16.68
				l1.56-31.01c2.26,0,8.27,17.82,14.64,27.01c3.35,4.86,10.03,6.03,14.86,2.65c5.11-3.58,13.58-8.63,14.19-15.23
				C1101.12,219.86,1100.59,214.72,1100.31,209.46z M660.93,394.79c0,9.97-0.67,18.38-2.04,25.28c-0.78,3.91-2.32,7.29-4.61,10.14
				c-1.73,2.15-3.91,3.99-6.51,5.53c-6.03,3.6-29.14,10.81-43.13,10.81h-2.88c-8.63,0-30.95-4.81-30.95-11.06l3.3-87.75l-3.04-38.92
				c-0.08-1.26-1.03-2.29-2.29-2.46l-18.52-1.48l-1.73-3.44l25.53-8.6c1.31-0.39,2.12-1.7,1.96-3.04
				c-1.34-10.11-8.74-23.19-0.78-23.19h28.61c13.44,0,24.25,1.03,30.84,2.77c7.85,2.1,14.55,5.89,16.48,11.84
				c1.93,5.98,9.78,11.15,9.78,20.92V394.79z"/>
		</g>
	</g>
        <g>

			<linearGradient id="SVGID_2_" gradientUnits="userSpaceOnUse" x1="1053.484" y1="-515.676" x2="1053.484"
                            y2="-382.6331"
                            gradientTransform="matrix(1.3927 -0.0386 -0.0386 2.0964 -322.8332 1321.6588)">
			<stop offset="0" style="stop-color:#FBB03B"/>
                <stop offset="1" style="stop-color:#C43408"/>
		</linearGradient>
            <path fill="url(#SVGID_2_)" d="M1140.11,238.25l7.79,87.22c0.04,0.41,0.06,0.82,0.06,1.23l0.94,133.02
			c0.02,3.29,1.12,6.41,3.06,8.7l5.63,6.68c1.83,2.17,4.28,3.44,6.88,3.59l0,0c5.86,0.32,10.91-5.08,11.29-12.06l6.44-117.75
			c0.03-0.63,0.03-1.26-0.01-1.88l-5.31-75.14c-0.09-1.34-0.01-2.69,0.25-4l10.15-50.84c1.53-7.66-3.07-14.98-9.64-15.34
			l-24.97-1.36c-5.86-0.32-10.91,5.08-11.29,12.06l-1.3,23.74C1140.03,236.81,1140.04,237.53,1140.11,238.25z"/>

            <linearGradient id="SVGID_3_" gradientUnits="userSpaceOnUse" x1="1102.8381" y1="-514.6514" x2="1102.8381"
                            y2="-381.6085"
                            gradientTransform="matrix(1.3927 -0.0386 -0.0386 2.0964 -322.8332 1321.6588)">
			<stop offset="0" style="stop-color:#FBB03B"/>
                <stop offset="1" style="stop-color:#C43408"/>
		</linearGradient>
            <path fill="url(#SVGID_3_)" d="M1208.81,238.49l7.79,87.22c0.04,0.41,0.06,0.82,0.06,1.23l0.94,133.02
			c0.02,3.29,1.12,6.41,3.06,8.7l5.63,6.68c1.83,2.17,4.28,3.44,6.88,3.59h0c5.86,0.32,10.91-5.08,11.29-12.06l6.44-117.75
			c0.03-0.63,0.03-1.26-0.01-1.88l-5.31-75.14c-0.09-1.34-0.01-2.69,0.25-4l10.15-50.84c1.53-7.66-3.07-14.98-9.64-15.34
			l-24.97-1.36c-5.86-0.32-10.91,5.08-11.29,12.06l-1.3,23.74C1208.73,237.06,1208.74,237.78,1208.81,238.49z"/>
	</g>
</g>
</svg>
